<svg xmlns="http://www.w3.org/2000/svg" xmlns:svg="http://www.w3.org/2000/svg" id="svg3053" width="200" height="200" version="1.1"><metadata id="metadata3058"/><g id="layer1" display="inline" transform="translate(-315.00002,-392.36223)"><g id="g2985" transform="matrix(4.7619048,0,0,4.7619048,-1370.7143,-2042.6958)"><path id="path3028-4-5-3" fill="#c60032" fill-opacity="1" d="m 218.0851,397.84091 c 0,12.77893 -10.00215,23.1383 -22.34043,23.1383 -12.33827,0 -22.34042,-10.35937 -22.34042,-23.1383 0,-12.77893 10.00215,-23.1383 22.34042,-23.1383 12.33828,0 22.34043,10.35937 22.34043,23.1383 z" transform="matrix(0.94,0,0,0.9075862,191.00001,171.28726)"/><g font-style="normal" style="line-height:125%" id="text3003-0-4-0" fill="#fff" fill-opacity="1" stroke="none" font-family="Sans" font-size="46" font-weight="normal" letter-spacing="0" transform="translate(52.138256,-208.57143)" word-spacing="0"><path style="-inkscape-font-specification:generic Bold" id="path3008" fill="#fff" d="m 322.85053,756.03406 4.7355,0 1.3079,-7.9827 4.8708,0 0,-4.4649 -4.1492,0 1.0373,-6.4944 4.9159,0 0,-4.4649 -4.1492,0 1.1275,-7.0356 -4.7355,0 -1.1275,7.0356 -5.1865,0 1.1275,-7.0356 -4.7355,0 -1.1275,7.0356 -5.0963,0 0,4.4649 4.3296,0 -1.0373,6.4944 -5.0963,0 0,4.4649 4.3747,0 -1.3079,7.9827 4.7355,0 1.3079,-7.9827 5.1865,0 -1.3079,7.9827 m 2.0295,-12.4476 -5.1865,0 1.0373,-6.4944 5.1865,0 -1.0373,6.4944" font-family="generic" font-size="45.1" font-stretch="normal" font-variant="normal" font-weight="bold"/></g></g></g></svg>