<svg xmlns="http://www.w3.org/2000/svg" xmlns:svg="http://www.w3.org/2000/svg" id="svg3877" width="215.941" height="50" version="1.1"><metadata id="metadata4"/><g id="layer1" transform="translate(-240.69473,-715.93361)"><path id="path3028-4-5-3" fill="#c60032" fill-opacity="1" d="m 218.0851,397.84091 c 0,12.77893 -10.00215,23.1383 -22.34043,23.1383 -12.33827,0 -22.34042,-10.35937 -22.34042,-23.1383 0,-12.77893 10.00215,-23.1383 22.34042,-23.1383 12.33828,0 22.34043,10.35937 22.34043,23.1383 z" transform="matrix(0.94,0,0,0.9075862,138.86175,379.85869)"/><path id="path2998" fill="#3c3c3c" fill-opacity="1" stroke="none" d="m 248.69473,755.61224 c 0.56,0 0.8,-0.24 0.8,-0.8 l 0,-12.24 c 0,-2.51999 1.32001,-3.88 3.8,-3.88 0.76,0 1.64,0.44 1.64,-0.6 l 0,-3 c 0,-0.56 -0.16,-0.6 -0.72,-0.6 -1.72,0.04 -3.72,10e-6 -5.44,2.64 l -0.08,0 -0.4,-1.52 c -0.24,-0.52 -0.24,-0.8 -0.8,-0.8 l -2,0 c -0.56,0 -0.8,0.24 -0.8,0.8 l 0,19.2 c 0,0.56 0.24,0.8 0.8,0.8 l 3.2,0" font-family="Designosaur" font-size="40" font-stretch="normal" font-style="normal" font-variant="normal" font-weight="normal" letter-spacing="0" word-spacing="0" style="line-height:125%;-inkscape-font-specification:Designosaur"/><path id="path3000" fill="#3c3c3c" fill-opacity="1" stroke="none" d="m 272.47473,751.81224 c -0.12,-0.16 -0.24,-0.32 -1.04,-0.08 -1.64,0.52 -3.16,1 -4.72,1 -3.51999,0 -4.72,-2.48 -5.04,-5.84 l 8.2,0 c 3.32,0 4.36,-0.92 4.36,-4 0,-5.79999 -3.72,-8.6 -8.56,-8.6 -6.47999,0 -8.88,4.96001 -8.88,11.12 0,5.6 2.00001,10.68 9.4,10.68 3.4,0 6.32,-1.08 7.08,-1.96 0.32,-0.36 0.28,-0.68 0.04,-1.04 l -0.84,-1.28 m -10.8,-8.28 c 0.24,-3.15999 1.28001,-5.88 4.2,-5.88 2.12,0 3.52,2.16001 3.52,4.52 0,1.2 -0.32,1.36 -1.56,1.36 l -6.16,0" font-family="Designosaur" font-size="40" font-stretch="normal" font-style="normal" font-variant="normal" font-weight="normal" letter-spacing="0" word-spacing="0" style="line-height:125%;-inkscape-font-specification:Designosaur"/><path id="path3002" fill="#3c3c3c" fill-opacity="1" stroke="none" d="m 296.25973,755.61224 c 0.56,0 0.8,-0.24 0.8,-0.8 l 0,-28 c 0,-0.56 -0.24,-0.8 -0.8,-0.8 l -3.2,0 c -0.56,0 -0.8,0.24 -0.8,0.8 l 0,10.44 -0.08,0 c -1,-1.51999 -2.76,-2.92 -6.16,-2.92 -4.63999,0 -8.6,2.64001 -8.6,10.96 0,8.24 3.92001,10.84 8.48,10.84 3.04,0 5.44,-0.92 7.08,-3 l 0.08,0 0.4,1.68 c 0.12,0.56 0.24,0.8 0.8,0.8 l 2,0 m -9.52,-2.84 c -2.91999,0 -4.52,-1.44 -4.52,-7.48 0,-6.23999 1.72001,-7.6 4.48,-7.6 3.52,0 5.56,2.16001 5.56,7.6 0,5.32 -1.96,7.48 -5.52,7.48" font-family="Designosaur" font-size="40" font-stretch="normal" font-style="normal" font-variant="normal" font-weight="normal" letter-spacing="0" word-spacing="0" style="line-height:125%;-inkscape-font-specification:Designosaur"/><g id="text3016" fill="#3c3c3c" fill-opacity="1" stroke="none" font-family="Sans" font-size="40" font-style="normal" font-weight="normal" letter-spacing="0" word-spacing="0" style="line-height:125%"><path id="path3011" fill="#3c3c3c" d="m 375.14875,755.65222 c 0.52,0 0.76,-0.24 0.76,-0.8 l 0,-12.64 c 0,-4.99999 -3.28001,-7.84 -7.24,-7.84 -1.92,0 -4.04,1.2 -5.12,3.28 -1.28,-2.12 -3.44,-3.28 -5.92,-3.28 -1.72,0 -3.72,1.04 -4.52,2.92 l -0.08,0 -0.4,-1.64 c -0.12,-0.56 -0.24,-0.8 -0.8,-0.8 l -2,0 c -0.56,0 -0.8,0.24 -0.8,0.8 l 0,19.2 c 0,0.56 0.24,0.8 0.8,0.8 l 3.2,0 c 0.56,0 0.8,-0.24 0.8,-0.8 l 0,-10.88 c 0,-4.11999 1.12,-6.24 3.4,-6.24 2.12,0 2.84,2.76 2.84,5.84 l 0,11.28 c 0,0.56 0.24,0.8 0.76,0.8 l 3.28,0 c 0.52,0 0.76,-0.24 0.76,-0.8 l 0,-11.16 c 0.04,-3.91999 1.2,-5.96 3.4,-5.96 2.12,0 2.84,2.76 2.84,5.84 l 0,11.28 c 0,0.56 0.24,0.8 0.76,0.8 l 3.28,0" font-family="Designosaur" font-stretch="normal" font-variant="normal" style="-inkscape-font-specification:Designosaur"/><path id="path3013" fill="#3c3c3c" d="m 396.04812,755.65222 c 0.56,0 0.8,-0.24 0.8,-0.8 l 0,-9.84 c 0,-5.71999 -1.76,-10.68 -8.68,-10.68 -3.19999,0 -6.12,1.08 -6.92,1.96 -0.32,0.36 -0.28,0.68 -0.04,1.04 l 0.84,1.28 c 0.12,0.16 0.28,0.32 1.04,0.08 1.8,-0.56 3.24,-1 4.52,-1 3.32,0 4.16,3 4.36,4.68 l -4.12,0 c -4.55999,0 -8.36,1.36001 -8.36,6.52 0,4.92 3.48001,7.24 7.52,7.24 2.68,0 4.72,-1 5.76,-2.92 l 0.08,0 0.4,1.64 c 0.12,0.56 0.24,0.8 0.8,0.8 l 2,0 m -4,-8.76 c 0,4.08 -1.48,5.88 -3.92,5.88 -2.83999,0 -3.8,-2.4 -3.8,-4 0,-1.92 1.4,-3.04 3.52,-3.04 l 4.2,0 0,1.16" font-family="Designosaur" font-stretch="normal" font-variant="normal" style="-inkscape-font-specification:Designosaur"/><path id="path3015" fill="#3c3c3c" d="m 408.715,755.65222 c 0.56,0 0.8,-0.24 0.8,-0.8 l 0,-1.76 c 0,-0.56 -0.24,-0.8 -0.8,-0.8 l -0.28,0 c -0.92,0 -1.92,-0.8 -1.92,-2.76 l 0,-11.52 2.52,0 c 0.56,0 0.8,-0.24 0.8,-0.8 l 0,-1.56 c 0,-0.56 -0.24,-0.8 -0.8,-0.8 l -2.52,0 0,-4.28 c 0,-0.56 -0.28,-1 -0.8,-0.8 l -3.2,1.2 c -0.52,0.2 -0.8,0.24 -0.8,0.8 l 0,3.08 -2.08,0 c -0.56,0 -0.8,0.24 -0.8,0.8 l 0,1.56 c 0,0.56 0.24,0.8 0.8,0.8 l 2.08,0 0,11.4 c 0,4.2 1.92,6.24 5.52,6.24 l 1.48,0" font-family="Designosaur" font-stretch="normal" font-variant="normal" style="-inkscape-font-specification:Designosaur"/><path id="path3017" fill="#3c3c3c" d="m 417.01312,755.65222 c 0.56,0 0.8,-0.24 0.8,-0.8 l 0,-12.24 c 0,-2.52 1.32001,-3.88 3.8,-3.88 0.76,0 1.64,0.44 1.64,-0.6 l 0,-3 c 0,-0.56 -0.16,-0.6 -0.72,-0.6 -1.72,0.04 -3.72,0 -5.44,2.64 l -0.08,0 -0.4,-1.52 c -0.24,-0.52 -0.24,-0.8 -0.8,-0.8 l -2,0 c -0.56,0 -0.8,0.24 -0.8,0.8 l 0,19.2 c 0,0.56 0.24,0.8 0.8,0.8 l 3.2,0" font-family="Designosaur" font-stretch="normal" font-variant="normal" style="-inkscape-font-specification:Designosaur"/><path id="path3019" fill="#3c3c3c" d="m 430.06,730.85222 c 0.56,0 0.8,-0.24 0.8,-0.8 l 0,-3.2 c 0,-0.56 -0.24,-0.8 -0.8,-0.8 l -3.2,0 c -0.56,0 -0.8,0.24 -0.8,0.8 l 0,3.2 c 0,0.56 0.24,0.8 0.8,0.8 l 3.2,0 m 0,24.8 c 0.56,0 0.8,-0.24 0.8,-0.8 l 0,-19.2 c 0,-0.56 -0.24,-0.8 -0.8,-0.8 l -3.2,0 c -0.56,0 -0.8,0.24 -0.8,0.8 l 0,19.2 c 0,0.56 0.24,0.8 0.8,0.8 l 3.2,0" font-family="Designosaur" font-stretch="normal" font-variant="normal" style="-inkscape-font-specification:Designosaur"/><path id="path3021" fill="#3c3c3c" d="m 452.12812,755.65222 c 0.56,0 0.64,-0.2 0.32,-0.64 l -6.72,-10 6.4,-9.52 c 0.32,-0.44 0.32,-0.64 -0.32,-0.64 l -4.16,0 c -0.52,0 -0.96,0.2 -1.24,0.68 l -3.44,6.8 -3.24,-6.8 c -0.28,-0.48 -0.64,-0.68 -1.2,-0.68 l -4.4,0 c -0.56,0 -0.64,0.2 -0.32,0.64 l 6.4,9.52 -6.72,10 c -0.32,0.44 -0.16,0.64 0.32,0.64 l 4.16,0 c 0.52,0 0.96,-0.2 1.24,-0.68 l 3.76,-7.08 3.56,7.08 c 0.28,0.48 0.64,0.68 1.2,0.68 l 4.4,0" font-family="Designosaur" font-stretch="normal" font-variant="normal" style="-inkscape-font-specification:Designosaur"/></g><g id="text3003-0-4-0" fill="#fff" fill-opacity="1" stroke="none" font-family="Sans" font-size="46" font-style="normal" font-weight="normal" letter-spacing="0" word-spacing="0" style="line-height:125%"><path id="path3008" fill="#fff" d="m 322.85053,756.03406 4.7355,0 1.3079,-7.9827 4.8708,0 0,-4.4649 -4.1492,0 1.0373,-6.4944 4.9159,0 0,-4.4649 -4.1492,0 1.1275,-7.0356 -4.7355,0 -1.1275,7.0356 -5.1865,0 1.1275,-7.0356 -4.7355,0 -1.1275,7.0356 -5.0963,0 0,4.4649 4.3296,0 -1.0373,6.4944 -5.0963,0 0,4.4649 4.3747,0 -1.3079,7.9827 4.7355,0 1.3079,-7.9827 5.1865,0 -1.3079,7.9827 m 2.0295,-12.4476 -5.1865,0 1.0373,-6.4944 5.1865,0 -1.0373,6.4944" font-family="generic" font-size="45.1" font-stretch="normal" font-variant="normal" font-weight="bold" style="-inkscape-font-specification:generic Bold"/></g></g></svg>